<svg width="24.000000" height="24.000000" viewBox="0 0 24 24" fill="none" xmlns="http://www.w3.org/2000/svg" xmlns:xlink="http://www.w3.org/1999/xlink">
	<desc>
			Created with Pixso.
	</desc>
	<defs>
		<clipPath id="clip31_2529">
			<rect id="mdi:user" width="24.000000" height="24.000000" fill="white" fill-opacity="0"/>
		</clipPath>
	</defs>
	<rect id="mdi:user" width="24.000000" height="24.000000" fill="#FFFFFF" fill-opacity="0"/>
	<g clip-path="url(#clip31_2529)">
		<path id="Vector" d="M12 4C13.0609 4 14.0783 4.42139 14.8284 5.17163C15.5786 5.92175 16 6.93909 16 8C16 9.06091 15.5786 10.0782 14.8284 10.8284C14.0783 11.5786 13.0609 12 12 12C10.9391 12 9.92169 11.5786 9.17157 10.8284C8.42145 10.0782 8 9.06091 8 8C8 6.93909 8.42145 5.92175 9.17157 5.17163C9.92169 4.42139 10.9391 4 12 4ZM12 14C16.42 14 20 15.79 20 18L20 20L4 20L4 18C4 15.79 7.58002 14 12 14Z" fill='black' fill-opacity="1.000000" fill-rule="nonzero"/>
	</g>
</svg>

