<svg width="16.000000" height="16.000000" viewBox="0 0 16 16" fill="none" xmlns="http://www.w3.org/2000/svg" xmlns:xlink="http://www.w3.org/1999/xlink">
	<desc>
			Created with Pixso.
	</desc>
	<defs>
		<clipPath id="clip31_2509">
			<rect id="map-pin" width="16.000000" height="16.000000" fill="white" fill-opacity="0"/>
		</clipPath>
	</defs>
	<rect id="map-pin" width="16.000000" height="16.000000" fill="#FFFFFF" fill-opacity="0"/>
	<g clip-path="url(#clip31_2509)">
		<path id="Vector" d="M8 15.3333C8 15.3333 2 11.3333 2 6.66663C2 5.07532 2.63214 3.54919 3.75739 2.42395C4.88257 1.29883 6.40869 0.666626 8 0.666626C9.59131 0.666626 11.1174 1.29883 12.2426 2.42395C13.3679 3.54919 14 5.07532 14 6.66663C14 11.3333 8 15.3333 8 15.3333Z" stroke="#11101C" stroke-opacity="1.000000" stroke-width="1.500000" stroke-linejoin="round"/>
		<path id="Vector" d="M8 8.66663C6.89545 8.66663 6 7.77124 6 6.66663C6 5.56201 6.89545 4.66663 8 4.66663C9.10455 4.66663 10 5.56201 10 6.66663C10 7.77124 9.10455 8.66663 8 8.66663Z" stroke="#11101C" stroke-opacity="1.000000" stroke-width="1.500000" stroke-linejoin="round"/>
	</g>
</svg>

