<svg width="14.179810" height="13.534790" viewBox="0 0 14.1798 13.5348" fill="none" xmlns="http://www.w3.org/2000/svg" xmlns:xlink="http://www.w3.org/1999/xlink">
	<desc>
			Created with Pixso.
	</desc>
	<defs/>
	<path id="Star 2" d="M6.64771 0.266724L4.75946 3.84558C4.68707 3.98279 4.55524 4.07861 4.40247 4.10498L0.415283 4.79492C0.019104 4.8634 -0.138245 5.34778 0.141968 5.63599L2.96216 8.53784C3.07019 8.64893 3.12061 8.80396 3.09851 8.9574L2.52252 12.9626C2.46527 13.3606 2.87726 13.6599 3.23804 13.4825L6.86926 11.697C7.00842 11.6287 7.17139 11.6287 7.31055 11.697L10.9418 13.4825C11.3026 13.6599 11.7145 13.3606 11.6573 12.9626L11.0813 8.9574C11.0592 8.80396 11.1096 8.64893 11.2177 8.53784L14.0378 5.63599C14.3181 5.34778 14.1607 4.8634 13.7645 4.79492L9.77734 4.10498C9.62457 4.07861 9.49274 3.98279 9.42035 3.84558L7.5321 0.266724C7.34454 -0.0888672 6.83527 -0.0888672 6.64771 0.266724Z" fill="#FFC531" fill-opacity="1.000000" fill-rule="evenodd"/>
	<path id="Star 2" d="M4.75946 3.84558C4.68707 3.98279 4.55524 4.07861 4.40247 4.10498L0.415283 4.79492C0.019104 4.8634 -0.138245 5.34778 0.141968 5.63599L2.96216 8.53784C3.07019 8.64893 3.12061 8.80396 3.09851 8.9574L2.52252 12.9626C2.46527 13.3606 2.87726 13.6599 3.23804 13.4825L6.86926 11.697C7.00842 11.6287 7.17139 11.6287 7.31055 11.697L10.9418 13.4825C11.3026 13.6599 11.7145 13.3606 11.6573 12.9626L11.0813 8.9574C11.0592 8.80396 11.1096 8.64893 11.2177 8.53784L14.0378 5.63599C14.3181 5.34778 14.1607 4.8634 13.7645 4.79492L9.77734 4.10498C9.62457 4.07861 9.49274 3.98279 9.42035 3.84558L7.5321 0.266724C7.34454 -0.0888672 6.83527 -0.0888672 6.64771 0.266724L4.75946 3.84558ZM5.8208 4.40564C5.57483 4.87183 5.12646 5.19751 4.60706 5.28748L1.92719 5.7511L3.82269 7.70142C4.19006 8.07947 4.36133 8.60645 4.28632 9.1283L3.89917 11.8203L6.33978 10.6202C6.81281 10.3876 7.367 10.3876 7.84003 10.6202L10.2806 11.8203L9.89349 9.1283C9.81848 8.60645 9.98975 8.07947 10.3571 7.70142L12.2526 5.7511L9.57275 5.28748C9.05334 5.19751 8.60498 4.87183 8.35901 4.40564L7.0899 2.00012L5.8208 4.40564Z" fill="#FFC531" fill-opacity="1.000000" fill-rule="evenodd"/>
</svg>


